<?xml version="1.0" encoding="UTF-8"?>
<svg xmlns="http://www.w3.org/2000/svg" xmlns:xlink="http://www.w3.org/1999/xlink" width="560.02pt" height="513.74pt" viewBox="0 0 560.02 513.74" version="1.1">
<defs>
<clipPath id="clip1">
  <path d="M 0 0 L 560.019531 0 L 560.019531 513.738281 L 0 513.738281 Z M 0 0 "/>
</clipPath>
</defs>
<g id="surface1">
<g clip-path="url(#clip1)" clip-rule="nonzero">
<path style=" stroke:none;fill-rule:nonzero;fill:rgb(98.399353%,66.299438%,9.799194%);fill-opacity:1;" d="M 171.609375 294.730469 L 171.609375 172.609375 C 156.105469 221.96875 128.394531 306.1875 128.394531 306.1875 C 128.394531 306.1875 78.21875 158.84375 73.210938 139.429688 C 72.933594 138.363281 71.964844 137.628906 70.863281 137.648438 L 0 137.648438 L 19.007813 156.675781 C 19.007813 170.363281 19.007813 397.742188 18.792969 398.445313 L 0 417.199219 L 93.859375 417.199219 L 74.894531 398.328125 C 74.757813 397.664063 74.679688 267.765625 74.679688 267.765625 L 128.316406 417.21875 Z M 243.316406 513.738281 L 187.273438 417.21875 L 187.273438 114.125 L 154.304688 114.125 L 243.316406 0.00390625 Z M 373.140625 417.277344 L 317.097656 513.484375 L 317.097656 114.164063 L 284.128906 114.164063 L 373.140625 0.00390625 Z M 507.535156 393.8125 L 429.574219 261.722656 L 496.683594 160.039063 L 530.886719 137.746094 L 432.15625 137.746094 L 444.472656 156.441406 L 388.78125 240.953125 L 388.78125 323.476563 L 399.066406 307.832031 C 399.066406 307.832031 453.566406 399.738281 463.5 416.789063 L 533.289063 416.789063 Z M 553.039063 411.996094 L 547.527344 400.167969 L 545.746094 400.167969 L 545.746094 416.847656 L 547.527344 416.847656 L 547.527344 404.175781 L 552.160156 414.226563 L 553.6875 414.226563 L 558.242188 404.175781 L 558.242188 416.847656 L 560.019531 416.847656 L 560.019531 400.167969 L 558.242188 400.167969 Z M 531.316406 401.769531 L 536.125 401.769531 L 536.125 416.847656 L 537.925781 416.847656 L 537.925781 401.769531 L 542.753906 401.769531 L 542.753906 400.167969 L 531.335938 400.167969 L 531.335938 401.769531 L 531.316406 401.769531 "/>
</g>
</g>
</svg>
