<?xml version="1.0" encoding="UTF-8"?>
<svg xmlns="http://www.w3.org/2000/svg" id="Layer_1" viewBox="0 0 581.85 302.09"><path fill="#ed6516" d="M256.11,63.88a77.87,77.87,0,0,1,110.13,0l22-22a109,109,0,0,0-154.21,0Z" transform="translate(-20.2 -9.91)" /><path fill="#333e48" d="M394.65,48.81,372.5,71a77.92,77.92,0,0,1,5.43,88.1L337.84,119,316,67.64h-.11V137l43.27,43.27a77.89,77.89,0,0,1-96,0L306.46,137V67.9L284.51,119l-40.1,40.1A77.9,77.9,0,0,1,249.85,71L227.7,48.81a109,109,0,1,0,167,0Z" transform="translate(-20.2 -9.91)" /><rect fill="#f06414" x="529.87" y="239.78" width="51.98" height="62.32" rx="6.1" /><path fill="#fff" d="M571.1,293.39l15.56-14.7a20,20,0,0,0,2.63-2.72,8.92,8.92,0,0,0,1.81-4.85c.08-1.17.07-2.35.06-3.52A8.62,8.62,0,0,0,591,266a9,9,0,0,0-.57-1.8l-26.3,24.92a34.45,34.45,0,0,0-2.48,2.5,7.88,7.88,0,0,0-1.86,5.15c0,1.79,0,3.75,0,5.54h26.85a5,5,0,0,0,2.88-.91,6.65,6.65,0,0,0,2.87-6v-2Z" transform="translate(-20.2 -9.91)" /><path fill="#fff" d="M587.72,260.8a5.75,5.75,0,0,0-3.71-1.42H568.37a5.79,5.79,0,0,0-1.55.21,7.92,7.92,0,0,0-4.55,3.89,10.76,10.76,0,0,0-1.48,5.78v4h8.9v-5h10.1Z" transform="translate(-20.2 -9.91)" /><path fill="#333e48" d="M517.27,259.36V275.7a.42.42,0,0,1-.42.42H491.58a.42.42,0,0,1-.42-.42V259.36a.41.41,0,0,0-.41-.41H476.68a.41.41,0,0,0-.42.41v43a.41.41,0,0,0,.42.41h14.07a.41.41,0,0,0,.41-.41V286a.42.42,0,0,1,.42-.42h25.27a.42.42,0,0,1,.42.42v16.34a.41.41,0,0,0,.41.41h14.08a.41.41,0,0,0,.41-.41v-43a.41.41,0,0,0-.41-.41H517.68A.41.41,0,0,0,517.27,259.36Z" transform="translate(-20.2 -9.91)" /><path fill="#333e48" d="M181,270V259.36a.41.41,0,0,0-.42-.41H143.36a.4.4,0,0,0-.37.22l-6.48,12.72a.41.41,0,0,0,0,.19v30.25a.41.41,0,0,0,.42.41h43.73a.41.41,0,0,0,.42-.41V291.67a.42.42,0,0,0-.42-.42H151.79a.42.42,0,0,1-.42-.42V286a.42.42,0,0,1,.42-.42h23.85a.42.42,0,0,0,.42-.42v-8.61a.42.42,0,0,0-.42-.42H151.79a.42.42,0,0,1-.42-.42v-4.84a.42.42,0,0,1,.42-.42h28.82A.41.41,0,0,0,181,270Z" transform="translate(-20.2 -9.91)" /><path fill="#333e48" d="M349.6,259H333.38a.4.4,0,0,0-.37.22l-21.9,43a.42.42,0,0,0,.38.6h15.79a.4.4,0,0,0,.37-.22l13.47-26.43a.42.42,0,0,1,.74,0l13.46,26.43a.42.42,0,0,0,.38.22h15.79a.41.41,0,0,0,.37-.6l-21.89-43A.41.41,0,0,0,349.6,259Z" transform="translate(-20.2 -9.91)" /><path fill="#333e48" d="M309.48,259.17,299.88,278a.41.41,0,0,1-.74,0l-9.6-18.83a.4.4,0,0,0-.37-.22h-10.7a.42.42,0,0,0-.38.22L268.5,278a.41.41,0,0,1-.74,0l-9.6-18.83a.4.4,0,0,0-.37-.22H242a.41.41,0,0,0-.38.6l21.9,43a.4.4,0,0,0,.37.22h8.48a.41.41,0,0,0,.37-.22l10.71-21a.42.42,0,0,1,.74,0l10.71,21a.4.4,0,0,0,.37.22h8.46a.43.43,0,0,0,.38-.22l21.9-43a.41.41,0,0,0-.37-.6H309.85A.4.4,0,0,0,309.48,259.17Z" transform="translate(-20.2 -9.91)" /><path fill="#333e48" d="M458.61,259H425.82a14.27,14.27,0,0,0-4.25.63.4.4,0,0,0-.25.21l-7,13.77a.41.41,0,0,0,0,.19v19.93c0,5,5.18,9.06,11.56,9.06h32.79c6.39,0,11.57-4.05,11.57-9.06V286a.42.42,0,0,0-.42-.42H455.69a.42.42,0,0,0-.42.42v3.17a2.09,2.09,0,0,1-2.09,2.09H431.25a2.1,2.1,0,0,1-2.09-2.09V272.53a2.1,2.1,0,0,1,2.09-2.09h21.93a2.09,2.09,0,0,1,2.09,2.09v3.17a.42.42,0,0,0,.42.42h14.07a.42.42,0,0,0,.42-.42V268C470.18,263,465,259,458.61,259Z" transform="translate(-20.2 -9.91)" /><path fill="#333e48" d="M414.25,259h-56.9a.41.41,0,0,0-.37.6l5.43,10.66a.41.41,0,0,0,.37.23h15.15a.42.42,0,0,1,.42.42v31.47a.41.41,0,0,0,.41.41h14.08a.41.41,0,0,0,.41-.41V270.86a.42.42,0,0,1,.42-.42h15.15a.42.42,0,0,0,.37-.23l5.43-10.66A.41.41,0,0,0,414.25,259Z" transform="translate(-20.2 -9.91)" /><path fill="#333e48" d="M114.09,302.52l21.89-43a.41.41,0,0,0-.37-.6H119.82a.42.42,0,0,0-.38.22L106,285.6a.42.42,0,0,1-.74,0L91.77,259.17a.4.4,0,0,0-.37-.22H75.61a.42.42,0,0,0-.38.6l21.9,43a.4.4,0,0,0,.37.22h16.22A.41.41,0,0,0,114.09,302.52Z" transform="translate(-20.2 -9.91)" /><path fill="#333e48" d="M68.45,259.62a.41.41,0,0,0-.26-.22,14.87,14.87,0,0,0-3.64-.45H31.76C25.37,259,20.2,263,20.2,268v25.67a7.43,7.43,0,0,0,1.06,3.8.42.42,0,0,0,.62.13l13.06-10.08a.42.42,0,0,0,.16-.33V272.53a2.1,2.1,0,0,1,2.09-2.09H59.12a2.1,2.1,0,0,1,2.09,2.09v16.63a2.1,2.1,0,0,1-2.09,2.09H40.2a.38.38,0,0,0-.25.09l-12.88,9.94a.42.42,0,0,0,.12.73,14.4,14.4,0,0,0,4.57.73H64.55c6.39,0,11.56-4.05,11.56-9.06V274.76a.41.41,0,0,0,0-.19Z" transform="translate(-20.2 -9.91)" /><path fill="#333e48" d="M222.91,276.12H208.5a.41.41,0,0,0-.41.42v8.75a.6.6,0,0,0,.2.46l18.32,16.88a.37.37,0,0,0,.28.11h18.87A.41.41,0,0,0,246,302l-17.86-16.45h.31c6.39,0,11.56-4.06,11.56-9.06V268c0-5-5.17-9.06-11.56-9.06h-41a.41.41,0,0,0-.41.41v43a.41.41,0,0,0,.41.41h14.07a.41.41,0,0,0,.42-.41V270.86a.42.42,0,0,1,.42-.42h20.48a2.09,2.09,0,0,1,2.09,2.09V274A2.08,2.08,0,0,1,222.91,276.12Z" transform="translate(-20.2 -9.91)" /></svg>